<svg xmlns="http://www.w3.org/2000/svg" width="290.667" height="201.333" version="1.0" viewBox="0 0 218 151"><path d="M57,3.2c-15.4,2-25.4,4.7-35.8,9.4L16,15l5.7,11.5C25.2,33.5,28,38,29,38c.8,0,5.3-1.3,10-2.9C51.4,30.9,56.1,30,65,30c11.1,0,17,2.4,20.6,8.6,1.9,3.3,2.4,5.5,2.4,11.2,0,4.4-.5,7.4-1.2,7.8-.6.4-8.8,1.1-18.2,1.6-37,1.8-54.4,9.1-62.2,26.1-2.7,5.8-2.9,7-2.9,19.2,0,13,0,13,3.7,20.6,5.8,11.9,15.3,19.3,28,22,7,1.5,27.7.6,35.3-1.5,10.5-3,20.9-9.5,28.7-18l4.7-5.1,7,7.1c7.3,7.3,15.9,12.4,27.1,16.1,8,2.6,39.3,2.6,50-.1,13.1-3.2,19.1-5.7,20.1-8.3,1-2.7,1.3-24.6.3-25.6-.3-.3-2.9.3-5.8,1.5-13.4,5.3-28.3,8.1-41.6,7.6-9.6-.3-11.2-.6-17.2-3.6-10.2-5-16.5-14.4-17.5-26.3l-.6-5.9,4.4-.1c2.4-.1,22.9-.2,45.4-.3l41-.1-.1-15.6c0-23.3-4.2-36.3-15.6-48.4C191,9.9,180.1,4.9,163.3,3.1c-17.4-1.9-34,2.4-46.4,12.1-2,1.5-4.2,2.8-4.9,2.8-.7,0-2.8-1.4-4.7-3-4-3.6-11.9-7.7-18.2-9.6C84.2,4,67.8,1.9,64.5,2.2c-1.1.1-4.5.6-7.5,1zm109.5,27.7c8.9,4,15.3,14.8,15.5,25.8V60h-55v-3.9c0-11.8,8-22.8,19-26.2,4.9-1.5,16.3-.9,20.5,1zM87.8,88.8c.4,10.9-1.5,17.5-6.8,23.4-5.8,6.6-11.1,8.8-21.2,8.8-9.2,0-13.2-1.6-16.5-6.7-2.7-4.1-2.5-17.6.4-22.1,5.4-8.6,15.7-12.1,34.8-11.8l9,.1.3,8.3z"/></svg>